HIERARCHY
ROOT Hips
{
	OFFSET -3.958830 18.904000 13.208200
	CHANNELS 6 Xposition Yposition Zposition Zrotation Yrotation Xrotation 
	JOINT LHipJoint
	{
		OFFSET 0.000000 0.000000 0.000000
		CHANNELS 3 Zrotation Yrotation Xrotation
		JOINT LeftUpLeg
		{
			OFFSET 1.800000 -1.400000 0.085000
			CHANNELS 3 Zrotation Yrotation Xrotation
			JOINT LeftLeg
			{
				OFFSET 2.215000 -6.000000 0.000000
				CHANNELS 3 Zrotation Yrotation Xrotation
				JOINT LeftFoot
				{
					OFFSET 2.500000 -6.900000 0.000000
					CHANNELS 3 Zrotation Yrotation Xrotation
					JOINT LeftToeBase
					{
						OFFSET 0.200000 -0.500000 1.950000
						CHANNELS 3 Zrotation Yrotation Xrotation
						End Site
						{
							OFFSET 0.000000 0.000000 0.000000
						}
					}
				}
			}
		}
	}
	JOINT RHipJoint
	{
		OFFSET 0.000000 0.000000 0.000000
		CHANNELS 3 Zrotation Yrotation Xrotation
		JOINT RightUpLeg
		{
			OFFSET -1.800000 -1.400000 0.085000
			CHANNELS 3 Zrotation Yrotation Xrotation
			JOINT RightLeg
			{
				OFFSET -2.215000 -6.000000 0.000000
				CHANNELS 3 Zrotation Yrotation Xrotation
				JOINT RightFoot
				{
					OFFSET -2.500000 -6.900000 0.000000
					CHANNELS 3 Zrotation Yrotation Xrotation
					JOINT RightToeBase
					{
						OFFSET -0.200000 -0.500000 1.950000
						CHANNELS 3 Zrotation Yrotation Xrotation
						End Site
						{
							OFFSET 0.000000 0.000000 0.000000
						}
					}
				}
			}
		}
	}
	JOINT LowerBack
	{
		OFFSET 0.000000 0.000000 0.000000
		CHANNELS 3 Zrotation Yrotation Xrotation
		JOINT Spine
		{
			OFFSET -0.087000 1.940000 -0.288900
			CHANNELS 3 Zrotation Yrotation Xrotation
			JOINT Spine1
			{
				OFFSET 0.000000 1.950000 0.060000
				CHANNELS 3 Zrotation Yrotation Xrotation
				JOINT Neck
				{
					OFFSET 0.000000 0.000000 0.000000
					CHANNELS 3 Zrotation Yrotation Xrotation
					JOINT Neck1
					{
						OFFSET 0.000000 1.600000 0.340000
						CHANNELS 3 Zrotation Yrotation Xrotation
						JOINT Head
						{
							OFFSET 0.000000 1.667000 -0.240000
							CHANNELS 3 Zrotation Yrotation Xrotation
							End Site
							{
								OFFSET 0.000000 0.000000 0.000000
							}
						}
					}
				}
				JOINT LeftShoulder
				{
					OFFSET 0.000000 0.000000 0.000000
					CHANNELS 3 Zrotation Yrotation Xrotation
					JOINT LeftArm
					{
						OFFSET 2.700000 1.550000 -0.730000
						CHANNELS 3 Zrotation Yrotation Xrotation
						JOINT LeftForeArm
						{
							OFFSET 5.450000 0.000000 0.000000
							CHANNELS 3 Zrotation Yrotation Xrotation
							JOINT LeftHand
							{
								OFFSET 3.450000 0.000000 0.000000
								CHANNELS 3 Zrotation Yrotation Xrotation
								JOINT LeftHandIndex1
								{
									OFFSET 0.750000 0.000000 0.000000
									CHANNELS 3 Zrotation Yrotation Xrotation
									End Site
									{
										OFFSET 0.000000 0.000000 0.000000
									}
								}
							}
						}
					}
				}
				JOINT RightShoulder
				{
					OFFSET 0.000000 0.000000 0.000000
					CHANNELS 3 Zrotation Yrotation Xrotation
					JOINT RightArm
					{
						OFFSET -2.700000 1.550000 -0.730000
						CHANNELS 3 Zrotation Yrotation Xrotation
						JOINT RightForeArm
						{
							OFFSET -5.450000 0.000000 0.000000
							CHANNELS 3 Zrotation Yrotation Xrotation
							JOINT RightHand
							{
								OFFSET -3.450000 0.000000 0.000000
								CHANNELS 3 Zrotation Yrotation Xrotation
								JOINT RightHandIndex1
								{
									OFFSET -0.750000 0.000000 0.000000
									CHANNELS 3 Zrotation Yrotation Xrotation
									End Site
									{
										OFFSET 0.000000 0.000000 0.000000
									}
								}
							}
						}
					}
				}
			}
		}
	}
}
MOTION
Frames: 14
Frame Time: 0.016667
-3.895660 12.629770 -3.094120 51.100399 -14.748581 2.330634 -15.824222 10.724061 4.324754 28.220161 -5.674594 -43.994313 24.623073 0.551893 82.535318 1.812568 13.326675 -0.074832 0.591380 0.550240 0.560580 18.415171 -6.208826 6.015608 -25.422109 10.974085 -59.557722 -4.644751 -38.284914 116.135664 -4.302333 -19.434230 -1.216505 0.260830 -0.405560 0.069340 -3.123211 -3.796713 -10.849747 4.334450 -6.188666 42.534819 -4.159659 -2.581732 -3.712547 4.993929 1.214464 -14.140244 -4.111500 -1.803057 58.835741 -1.621210 -1.805330 -10.726720 -42.566989 -26.201842 6.107280 -40.568462 -17.579733 -4.009472 -39.091371 -32.103057 8.503650 -2.990005 3.398231 0.434640 -0.284520 0.411970 0.048510 32.668060 27.456191 8.501918 10.530139 6.611108 -10.609700 -23.298820 20.607980 -3.990152 2.514141 -1.336081 0.112260 0.062360 -0.263360 -0.166230 
-3.892530 12.546240 -3.094390 53.036590 -16.000036 1.568062 -15.966622 9.756114 5.345044 36.873232 -3.844914 -44.561549 11.144184 18.332019 92.229631 2.186870 15.228139 -0.602414 0.612580 0.577460 0.609010 18.435264 -5.870243 5.696930 -25.099522 11.414931 -60.795371 -10.283451 -32.666424 119.517729 -4.130285 -18.560839 -1.060107 0.272350 -0.440130 0.070110 -3.123796 -3.290920 -11.257634 0.860795 -5.059944 43.019529 -4.047339 -3.193401 -4.299650 4.555368 2.662022 -15.220749 -0.948412 -2.226898 62.601869 -1.541510 0.117260 -10.772050 -43.352659 -27.779014 6.851615 -39.863284 -18.431357 -3.212219 -38.813030 -28.575239 7.272056 -2.965738 3.335353 0.478200 -0.299870 0.456430 0.032630 34.266269 28.138867 8.035892 12.438484 7.267855 -11.647570 -24.999044 22.378294 -4.731971 2.478808 -1.318586 0.107560 0.070810 -0.269870 -0.194010 
-3.897750 12.477010 -3.103850 54.133114 -16.666851 0.841341 -16.123323 8.597905 6.673030 42.113680 -3.703968 -45.145411 -3.306362 36.698775 94.806015 2.963854 18.131710 -1.232316 0.630490 0.602440 0.641290 18.436803 -5.427518 5.359731 -23.941612 11.906778 -61.774344 -14.524301 -27.294634 121.386140 -3.962866 -17.762846 -0.913019 0.284300 -0.463790 0.072250 -3.093846 -2.892618 -11.665744 -1.679547 -4.405307 43.686064 -3.440550 -3.795885 -4.083816 4.079289 3.550893 -15.977561 1.269247 -2.663985 65.187301 -1.522200 1.613730 -10.454490 -42.985391 -29.173632 7.466145 -39.156914 -19.205743 -2.942434 -39.108547 -27.923919 7.115844 -2.955068 3.317133 0.497010 -0.304970 0.482590 0.024050 34.788994 28.848467 7.605312 14.033082 7.724161 -12.837291 -26.569693 25.828546 -5.738717 2.416512 -1.316408 0.108860 0.067570 -0.278840 -0.210850 
-3.915210 12.433190 -3.117820 55.466899 -16.207103 0.047815 -16.168083 7.770904 7.665327 44.419327 -4.310115 -45.438461 -19.382407 50.417109 88.259195 3.397368 19.163066 -1.369373 0.641190 0.617570 0.659460 18.460515 -5.211036 5.082952 -23.919606 11.346157 -61.639862 -17.405112 -23.797816 122.307781 -3.858607 -17.241474 -0.813023 0.290150 -0.474090 0.075130 -3.158383 -2.531757 -11.916823 -3.433899 -4.401948 44.783393 -3.319668 -5.041152 -4.301573 3.624079 4.017834 -16.550570 2.384123 -2.719376 66.822984 -1.321690 2.717200 -10.402230 -43.665260 -30.150765 8.113531 -38.067275 -20.168488 -2.552394 -37.810838 -26.473003 6.425183 -2.940306 3.287348 0.510730 -0.308290 0.499050 0.018930 36.196124 29.200608 7.140066 14.541022 7.725276 -13.682326 -27.183721 28.628659 -6.380619 2.372484 -1.306124 0.109800 0.068520 -0.281380 -0.219940 
-3.921960 12.414050 -3.140050 55.602694 -15.769581 -0.502264 -16.136101 7.587982 7.947892 43.116337 -5.052472 -46.138908 -32.347366 56.718392 79.717065 3.389729 18.447366 -1.165557 0.632850 0.609610 0.666050 18.469698 -5.248334 4.936776 -23.117182 11.053401 -61.165789 -18.434812 -22.039135 121.803720 -3.793569 -17.000784 -0.774306 0.286270 -0.473600 0.078150 -3.216795 -2.424182 -11.930857 -3.471984 -4.781226 45.844805 -3.688985 -5.753945 -4.085728 3.582385 4.414573 -16.780610 3.277209 -2.818893 67.262070 -1.581040 3.457790 -10.255930 -44.218076 -30.714757 8.550081 -37.151230 -21.168952 -2.399953 -35.455812 -25.602384 5.785198 -2.956311 3.256694 0.509670 -0.300040 0.497790 0.006130 36.623013 29.365719 6.849934 14.669262 7.944330 -13.956579 -27.073238 29.730241 -6.542078 2.349269 -1.295920 0.106800 0.066490 -0.272070 -0.228170 
-3.939030 12.398330 -3.157810 55.478295 -14.958795 -1.074830 -16.093677 7.658943 7.948200 41.745914 -5.526046 -45.975604 -40.290950 59.520473 74.097667 3.311586 17.685338 -0.973871 0.641880 0.615860 0.669650 18.470503 -5.330973 4.867069 -23.010557 10.596640 -60.184386 -18.297817 -22.802290 122.134274 -3.822452 -17.072504 -0.789000 0.290430 -0.482690 0.074150 -3.234156 -2.482460 -11.887123 -3.148719 -5.352418 46.459028 -3.463601 -6.251280 -3.736785 3.466625 3.752377 -16.975102 1.450126 -1.925599 68.358065 -1.698430 3.120270 -10.287530 -44.078750 -30.854070 8.930209 -36.812950 -21.626176 -2.486588 -32.185155 -25.324313 5.150641 -2.946888 3.235484 0.518420 -0.312600 0.502700 0.006430 36.742359 29.713816 6.829375 14.281828 7.341225 -14.629070 -27.401588 32.774191 -7.112319 2.308683 -1.293242 0.108540 0.070160 -0.273610 -0.228090 
-3.954430 12.382820 -3.170170 55.496601 -15.104365 -1.360231 -16.129001 7.557391 8.087350 42.077684 -5.832248 -46.173953 -36.527371 60.917743 79.333848 3.497752 18.400609 -1.100582 0.628030 0.595570 0.647390 18.453361 -5.228545 4.847222 -22.947980 10.822946 -60.160102 -18.682220 -22.644954 123.053708 -3.823323 -17.097325 -0.788157 0.284480 -0.469330 0.066310 -3.179134 -2.552327 -11.944510 -3.153582 -5.090040 46.188200 -2.834214 -5.634089 -3.483314 3.314367 2.836700 -16.755008 -0.881003 -0.845141 68.708105 -1.651540 2.580240 -9.457960 -43.551913 -30.303577 8.839943 -36.672958 -21.130181 -2.725507 -29.196682 -25.530444 4.710104 -2.962439 3.234157 0.507930 -0.308430 0.481360 0.008060 36.823697 29.743979 7.069622 13.522818 6.280779 -15.051604 -27.481527 34.823263 -7.452640 2.295857 -1.315918 0.102300 0.069080 -0.265660 -0.222040 
-3.982340 12.383200 -3.175430 55.880989 -16.320472 -1.992189 -16.201742 7.512627 8.180332 42.640068 -6.344647 -46.058113 -23.396804 59.391087 92.977585 3.891877 20.341802 -1.481442 0.623130 0.590480 0.631600 18.409188 -5.163882 4.778437 -22.395787 11.565923 -59.611696 -18.828518 -21.333585 122.966513 -3.783611 -16.970654 -0.762682 0.288180 -0.459310 0.061820 -3.064546 -2.594178 -11.954905 -3.810380 -3.873376 45.887883 -1.921696 -3.943669 -3.256121 3.130360 2.041920 -15.990799 -2.700868 -0.083956 69.033141 -1.740900 2.154850 -8.972910 -42.525945 -29.075797 8.032517 -35.740519 -19.991207 -2.760862 -26.996529 -25.546425 4.422352 -3.004429 3.218151 0.498490 -0.303600 0.468180 0.013320 36.649395 29.222144 7.373734 12.697982 5.375346 -15.105343 -27.100913 35.734972 -7.473730 2.299280 -1.341654 0.097940 0.071350 -0.262270 -0.216030 
-4.029880 12.376550 -3.199490 55.757688 -17.025248 -2.636332 -16.232731 7.938283 7.751080 41.277847 -6.845250 -46.057510 -9.842306 52.363893 104.317938 3.998064 21.284097 -1.687169 0.637600 0.606710 0.616570 18.354928 -5.261577 4.810723 -21.007694 12.707463 -58.677703 -17.684554 -21.553856 122.506022 -3.799261 -17.036226 -0.774225 0.306620 -0.448500 0.054070 -2.907034 -2.873762 -11.778947 -3.753027 -2.613418 45.865220 -0.537444 -1.928495 -2.928697 2.814094 0.707051 -14.785555 -5.941102 1.222734 68.287177 -1.205300 0.982330 -9.688320 -40.207173 -27.095478 6.564794 -34.594438 -18.225344 -2.805610 -24.994187 -25.967945 4.229115 -3.050647 3.186082 0.502880 -0.313980 0.461620 0.028110 35.468976 28.209250 7.762087 12.002213 4.336037 -14.888724 -27.345788 35.975458 -7.559955 2.304427 -1.357854 0.093170 0.090600 -0.262920 -0.204400 
-4.053590 12.382580 -3.183300 55.953613 -17.274078 -3.085782 -16.277065 8.345940 7.413750 42.269806 -5.910545 -44.243983 -4.417613 47.465344 106.370930 3.819634 20.685265 -1.593287 0.634520 0.603500 0.585360 18.303520 -5.358808 4.772580 -20.755839 12.871537 -57.317473 -16.468944 -22.276505 121.360390 -3.787414 -17.094044 -0.782392 0.306040 -0.430510 0.048740 -2.729181 -3.172146 -11.609520 -2.806888 -1.687223 44.522567 0.387724 0.001099 -1.566465 2.627546 -0.777678 -13.739978 -9.658963 2.224682 67.490186 -1.327400 -0.580030 -9.128390 -37.530002 -24.406052 5.266561 -33.374545 -16.332820 -3.534696 -22.202229 -29.977303 4.581862 -3.092395 3.198734 0.475830 -0.310800 0.437840 0.044990 33.422258 26.758991 8.463241 11.796416 2.803383 -14.049341 -28.113263 34.471483 -7.484360 2.339484 -1.399059 0.100860 0.089770 -0.264010 -0.181290 
-4.059200 12.427990 -3.197310 56.415795 -15.486711 -3.827750 -16.182026 9.133830 6.562212 39.050180 -6.623397 -44.177931 4.221364 36.025322 108.255415 3.364390 19.128766 -1.327884 0.609360 0.571750 0.552190 18.297683 -5.719475 4.864083 -21.956327 11.743324 -56.141924 -14.670878 -24.152551 119.773687 -3.776358 -17.197651 -0.802878 0.288910 -0.402420 0.045050 -2.688849 -3.527402 -11.279825 -1.047636 -1.906337 44.341782 0.576199 0.606073 -0.256453 2.560646 -1.815663 -13.068699 -12.072095 2.677220 65.346628 -1.497960 -1.723770 -9.169900 -34.626656 -22.402305 4.510224 -31.146822 -14.296364 -4.854608 -20.025198 -36.145918 5.216977 -3.121593 3.207192 0.459760 -0.301940 0.411750 0.049960 30.593599 25.433558 8.870386 12.382061 1.462628 -13.471228 -29.708781 34.541443 -7.914726 2.327017 -1.397618 0.095710 0.098870 -0.248330 -0.166680 
-4.086170 12.493390 -3.209400 56.425356 -13.747713 -4.750340 -16.047379 9.957240 5.589838 33.471926 -7.490513 -43.607586 11.633261 23.380554 106.062352 2.833250 17.188230 -0.948549 0.597810 0.554840 0.527530 18.299750 -6.012822 5.125071 -23.985128 10.970461 -54.434980 -8.073653 -31.256547 115.994252 -3.941837 -18.029890 -0.975380 0.280370 -0.381570 0.045680 -2.727554 -3.883317 -10.922002 1.751980 -2.315863 44.802469 0.737647 1.333545 1.352406 2.462304 -3.224464 -12.520640 -15.325854 3.382736 62.864033 -1.642060 -3.070950 -10.038550 -31.463832 -20.045788 3.730007 -28.640383 -12.006593 -5.908853 -14.180429 -40.867556 4.218948 -3.152356 3.154014 0.455170 -0.303470 0.397270 0.054990 27.470838 24.179723 9.204009 12.931074 0.211374 -13.057190 -32.065644 33.861768 -8.424270 2.322631 -1.398473 0.094230 0.114540 -0.233030 -0.151940 
-4.117630 12.572470 -3.215240 57.215035 -11.568249 -5.738909 -15.897631 10.744129 4.616479 26.758889 -8.531766 -41.157063 18.340176 11.038733 100.741945 2.482221 15.641606 -0.583130 0.587460 0.542500 0.484500 18.306576 -6.313557 5.450399 -27.190914 9.750671 -51.398229 1.146449 -38.639477 108.678010 -4.062381 -18.685479 -1.111201 0.267960 -0.352360 0.041890 -2.807771 -4.190728 -10.523505 4.097675 -2.767672 44.935833 1.062739 1.529389 3.102240 2.034620 -5.130917 -12.082522 -19.746362 4.276048 60.318331 -1.151830 -5.063480 -10.194850 -28.165621 -17.113256 3.167135 -25.782740 -9.048581 -6.913462 -6.550707 -45.994114 2.122257 -3.147914 3.122314 0.426760 -0.307060 0.370480 0.072230 24.885962 22.673441 9.305641 13.186418 -1.112651 -12.783648 -34.575463 33.978597 -9.155160 2.333875 -1.422040 0.106970 0.119010 -0.226830 -0.117300 
-4.160340 12.648120 -3.253120 57.219799 -9.477138 -5.584866 -15.760649 11.184961 3.850768 20.459108 -8.820155 -39.342825 26.351910 -1.539992 90.418532 2.273045 14.522298 -0.269208 0.555280 0.503090 0.422910 18.352845 -6.399961 5.960219 -29.642225 9.305451 -48.919811 15.480621 -47.098833 96.602096 -4.094330 -18.780120 -1.118625 0.244760 -0.309030 0.040610 -2.988560 -4.290826 -10.248395 7.380355 -3.376388 44.405887 1.505390 1.941993 5.081335 1.429572 -6.803651 -12.039883 -23.249370 4.208899 56.728049 -0.940830 -6.956250 -9.361760 -23.998602 -14.568899 2.857096 -23.636658 -7.535287 -6.715879 2.754416 -46.018308 -1.007397 -3.155813 3.059305 0.375940 -0.290440 0.323350 0.093890 21.746265 21.469216 9.528544 14.712883 -2.597104 -12.784877 -37.676193 33.680125 -10.077976 2.346381 -1.475163 0.114490 0.108260 -0.219050 -0.080450 
